<svg xmlns="http://www.w3.org/2000/svg" viewBox="0 0 13.55 14.4"><defs><style>.cls-1{isolation:isolate;}.cls-2{fill:#ca312c;}.cls-2,.cls-3{fill-rule:evenodd;}.cls-3{fill:#91b949;}</style></defs><title>cp_widget_paprikaAsset 1</title><g id="Layer_2" data-name="Layer 2"><g id="Shape_6_copy_19" data-name="Shape 6 copy 19" class="cls-1"><g id="Shape_6_copy_19-2" data-name="Shape 6 copy 19"><path class="cls-2" d="M13.45,5A2.16,2.16,0,0,0,12.91,4C11.78,2.78,10.75,2.31,9,3.1H9A1.48,1.48,0,0,0,7.58,4.22C7,6,6.27,7.83,5.61,9.64h0l-.3.39c-1.21.89-2.38,1.72-4.07,1C.63,10.82-.38,10.9.15,12.16a.72.72,0,0,0,.25.42A2,2,0,0,0,1,13a7.28,7.28,0,0,0,7.43.67c2.83-1.37,4.89-3.52,5.1-6.89A4.84,4.84,0,0,0,13.45,5Z"/></g></g><g id="Shape_7_copy_19" data-name="Shape 7 copy 19" class="cls-1"><g id="Shape_7_copy_19-2" data-name="Shape 7 copy 19"><path class="cls-3" d="M12.44,3.18a10,10,0,0,1,.15-1.41c.14-1.21-.5-1.73-1-1.77a1.72,1.72,0,0,0-1.31.52.46.46,0,0,0,0,.64c.23.25.44.24.58-.28C11,0,12,.89,12,1.31c-.05.85-.67,1.18-1.21,1.55a7.73,7.73,0,0,1-2,.71.3.3,0,0,0,0,.5,2,2,0,0,0,.68,0c.72-.11.94.1,1.16.81A2.23,2.23,0,0,1,12,4.7c.48.17.48.46.64.66a.2.2,0,0,0,.27-.2A3.61,3.61,0,0,1,12.44,3.18Z"/></g></g></g></svg>